<svg xmlns="http://www.w3.org/2000/svg" width="122" height="46" viewBox="0 0 122 46">
  <g fill="none" fill-rule="evenodd">
    <path fill="#FFF" d="M19.1237248,2.74086277 L1.57228282,19.3704314 C-0.43227257,21.2696993 -0.517624899,24.4343735 1.38164306,26.4389289 C1.44346454,26.5041775 1.50703423,26.5677471 1.57228282,26.6295686 L19.1237248,43.2591372 C20.9812314,45.01908 23.4427295,46 26.0015825,46 L112,46 C117.522847,46 122,41.5228475 122,36 L122,10 C122,4.4771525 117.522847,-1.01453063e-15 112,0 L26.0015825,-8.8817842e-15 C23.4427295,-8.41173051e-15 20.9812314,0.980920024 19.1237248,2.74086277 Z"/>
    <path fill="#000" d="M34.2310147,31.3868066 L34.2310147,15.2668666 L33.923846,15.2668666 C33.1909486,15.2668666 32.6870892,15.1829094 32.4122527,15.0149925 C32.1374162,14.8470756 32,14.5532255 32,14.1334333 C32,13.7556203 32.1104718,13.4722648 32.3314188,13.2833583 C32.5523658,13.0944518 32.8730036,13 33.2933418,13 L35.7506913,13 C36.0416947,13 36.2680273,13.0577206 36.4296958,13.1731634 C36.5913643,13.2886063 36.6721974,13.446026 36.6721974,13.6454273 L36.6721974,20.7766117 C37.4589843,20.0629649 38.2376761,19.5356089 39.0082961,19.1945277 C39.7789161,18.8534466 40.5791634,18.6829085 41.4090619,18.6829085 C43.0365252,18.6829085 44.3163819,19.176157 45.2486705,20.1626687 C46.1809591,21.1491803 46.6470964,22.5134845 46.6470964,24.2556222 L46.6470964,31.3868066 L47.4069347,31.3868066 C47.9458298,31.3868066 48.3338285,31.4733874 48.5709424,31.6465517 C48.8080562,31.819716 48.9266114,32.0952005 48.9266114,32.4730135 C48.9266114,32.8508265 48.818834,33.134182 48.6032759,33.3230885 C48.3877178,33.5119949 48.0643856,33.6064468 47.6332695,33.6064468 L43.3329079,33.6064468 C42.8263465,33.6064468 42.4841532,33.5251133 42.3063178,33.3624438 C42.1284824,33.1997743 42.039566,32.9033005 42.039566,32.4730135 C42.039566,32.0532213 42.1500379,31.7672421 42.3709849,31.6150675 C42.5919319,31.4628928 43.0095694,31.3868066 43.6239098,31.3868066 L44.1897469,31.3868066 L44.1897469,24.838081 C44.1897469,23.6101888 43.9041367,22.6735415 43.3329079,22.0281109 C42.7616791,21.3826804 41.931793,21.05997 40.8432248,21.05997 C39.7331009,21.05997 38.7604098,21.4220354 37.9251223,22.1461769 C37.0898349,22.8703185 36.6721974,23.7676108 36.6721974,24.838081 L36.6721974,31.3868066 L37.2380345,31.3868066 C37.8847086,31.3868066 38.3212071,31.4655165 38.5475431,31.6229385 C38.773879,31.7803606 38.8870453,32.0637161 38.8870453,32.4730135 C38.8870453,32.9033005 38.7981289,33.1997743 38.6202936,33.3624438 C38.4424582,33.5251133 38.1002649,33.6064468 37.5937035,33.6064468 L33.2933418,33.6064468 C32.8730036,33.6064468 32.5577547,33.5119949 32.3475856,33.3230885 C32.1374165,33.134182 32.0323335,32.8508265 32.0323335,32.4730135 C32.0323335,32.0532213 32.158972,31.7672421 32.4122527,31.6150675 C32.6655334,31.4628928 33.1586151,31.3868066 33.8915124,31.3868066 L34.2310147,31.3868066 Z M60.1786854,31.7961019 C61.8384824,31.7961019 63.1991722,31.2844879 64.2607956,30.2612444 C65.322419,29.2380009 65.8532227,27.9340409 65.8532227,26.3493253 C65.8532227,24.7646098 65.3197245,23.4554025 64.2527122,22.4216642 C63.1856998,21.3879259 61.8277045,20.8710645 60.1786854,20.8710645 C58.5296663,20.8710645 57.1743654,21.3879259 56.112742,22.4216642 C55.0511186,23.4554025 54.5203148,24.7646098 54.5203148,26.3493253 C54.5203148,27.9445357 55.0484241,29.2511193 56.1046586,30.2691154 C57.160893,31.2871115 58.5188884,31.7961019 60.1786854,31.7961019 Z M68.6662412,26.3493253 C68.6662412,28.5952136 67.8794661,30.431777 66.3058924,31.8590705 C64.7323186,33.286364 62.6899367,34 60.1786854,34 C57.678212,34 55.641219,33.286364 54.0676452,31.8590705 C52.4940714,30.431777 51.7072963,28.5952136 51.7072963,26.3493253 C51.7072963,24.103437 52.4940714,22.2694974 54.0676452,20.8474513 C55.641219,19.4254052 57.678212,18.7143928 60.1786854,18.7143928 C62.6791588,18.7143928 64.7188462,19.4280288 66.297809,20.8553223 C67.8767717,22.2826158 68.6662412,24.1139319 68.6662412,26.3493253 Z M86.0455222,24.838081 C86.0455222,23.3583134 85.908106,22.3586982 85.6332695,21.8392054 C85.358433,21.3197125 84.8869068,21.05997 84.2186769,21.05997 C83.4211121,21.05997 82.7879198,21.3957987 82.319081,22.0674663 C81.8502423,22.7391338 81.6158264,23.6626628 81.6158264,24.838081 L81.6158264,31.3868066 L81.9068283,31.3868066 C82.5642804,31.3868066 83.0034733,31.4628928 83.2244203,31.6150675 C83.4453673,31.7672421 83.5558392,32.0532213 83.5558392,32.4730135 C83.5558392,32.8508265 83.4642284,33.134182 83.281004,33.3230885 C83.0977797,33.5119949 82.8175584,33.6064468 82.4403318,33.6064468 L80.3871517,33.6064468 C79.9237019,33.6064468 79.6084529,33.5015003 79.4413954,33.2916042 C79.274338,33.0817081 79.1908105,32.6304382 79.1908105,31.9377811 L79.1908105,23.6101949 C79.1908105,22.8230845 79.0075889,22.2012766 78.6411402,21.7447526 C78.2746915,21.2882286 77.7735265,21.05997 77.1376303,21.05997 C76.6526247,21.05997 76.2080429,21.1990241 75.8038715,21.4771364 C75.3997002,21.7552488 75.052118,22.1671637 74.7611147,22.7128936 L74.7611147,31.3868066 L75.3592853,31.3868066 C76.0059594,31.3868066 76.4424579,31.4655165 76.6687939,31.6229385 C76.8951298,31.7803606 77.0082961,32.0637161 77.0082961,32.4730135 C77.0082961,32.9033005 76.9166853,33.1997743 76.733461,33.3624438 C76.5502366,33.5251133 76.19996,33.6064468 75.6826207,33.6064468 L71.3822591,33.6064468 C70.9619209,33.6064468 70.6520608,33.5146186 70.4526696,33.3309595 C70.2532784,33.1473004 70.1535843,32.8613213 70.1535843,32.4730135 C70.1535843,32.0532213 70.2802228,31.7672421 70.5335035,31.6150675 C70.7867842,31.4628928 71.2798659,31.3868066 72.0127632,31.3868066 L72.3360987,31.3868066 L72.3360987,21.2961019 L72.0450968,21.2961019 C71.2906436,21.2961019 70.7760065,21.2121448 70.50117,21.0442279 C70.2263334,20.876311 70.0889173,20.5824609 70.0889173,20.1626687 C70.0889173,19.7953505 70.1966947,19.519866 70.4122527,19.3362069 C70.6278108,19.1525478 70.951143,19.0607196 71.3822591,19.0607196 L73.8557754,19.0607196 C74.2114462,19.0607196 74.445862,19.1210639 74.55903,19.2417541 C74.672198,19.3624444 74.7395589,19.6169396 74.7611147,20.0052474 C75.2030087,19.543476 75.6772293,19.2023999 76.1837907,18.982009 C76.6903521,18.7616181 77.2615724,18.6514243 77.8974686,18.6514243 C78.6519218,18.6514243 79.2743363,18.8114677 79.7647309,19.1315592 C80.2551255,19.4516508 80.6188742,19.9370282 80.8559881,20.5877061 C81.30866,19.9265334 81.8313804,19.4385323 82.4241651,19.1236882 C83.0169497,18.808844 83.6959474,18.6514243 84.4611785,18.6514243 C85.8515279,18.6514243 86.86733,19.0921995 87.5086152,19.9737631 C88.1499004,20.8553267 88.4705382,22.2825988 88.4705382,24.2556222 L88.4705382,31.3868066 L88.7292066,31.3868066 C89.3974365,31.3868066 89.8447128,31.4655165 90.0710487,31.6229385 C90.2973847,31.7803606 90.4105509,32.0637161 90.4105509,32.4730135 C90.4105509,32.8508265 90.3135513,33.134182 90.119549,33.3230885 C89.9255468,33.5119949 89.6399367,33.6064468 89.2627101,33.6064468 L87.3065305,33.6064468 C86.8754144,33.6064468 86.5574711,33.480511 86.3526909,33.2286357 C86.1479108,32.9767604 86.0455222,32.5779637 86.0455222,32.0322339 L86.0455222,24.838081 Z M94.4522442,27.0262369 C94.5384674,28.5374888 95.0638823,29.7050184 96.0285046,30.5288606 C96.9931269,31.3527028 98.3107057,31.7646177 99.9812806,31.7646177 C101.242295,31.7646177 102.616457,31.43666 104.103808,30.7807346 C105.591158,30.1248093 106.4911,29.7968516 106.803659,29.7968516 C107.126996,29.7968516 107.396439,29.8965507 107.611997,30.095952 C107.827555,30.2953533 107.935333,30.5419775 107.935333,30.8358321 C107.935333,31.1401814 107.822167,31.4182896 107.595831,31.6701649 C107.369495,31.9220402 107.00844,32.1686645 106.512657,32.410045 C105.434867,32.9242904 104.322065,33.3178397 103.174218,33.5907046 C102.026372,33.8635696 100.886626,34 99.7549458,34 C97.297584,34 95.3306463,33.3099769 93.8540736,31.92991 C92.3775009,30.5498432 91.6392257,28.7211508 91.6392257,26.4437781 C91.6392257,24.1244262 92.4206119,22.2458843 93.9834078,20.808096 C95.5462037,19.3703077 97.5831967,18.6514243 100.094448,18.6514243 C102.368585,18.6514243 104.25469,19.3230817 105.752819,20.6664168 C107.250947,22.0097518 108,23.6364222 108,25.5464768 C108,26.1341858 107.873362,26.5277351 107.620081,26.7271364 C107.3668,26.9265377 106.679719,27.0262369 105.558817,27.0262369 L94.4522442,27.0262369 Z M94.5330781,24.964018 L105.057647,24.964018 C104.895979,23.7151362 104.359786,22.7102737 103.449053,21.9494003 C102.538321,21.1885269 101.42013,20.808096 100.094448,20.808096 C98.6609869,20.808096 97.45388,21.1754086 96.4730908,21.910045 C95.4923017,22.6446813 94.8456372,23.6626622 94.5330781,24.964018 Z"/>
  </g>
</svg>
